<?xml version="1.0" standalone="no"?>
<!DOCTYPE svg PUBLIC "-//W3C//DTD SVG 20010904//EN"
 "http://www.w3.org/TR/2001/REC-SVG-20010904/DTD/svg10.dtd">
<svg version="1.0" xmlns="http://www.w3.org/2000/svg"
 width="999.000000pt" height="999.000000pt" viewBox="0 0 999.000000 999.000000"
 preserveAspectRatio="xMidYMid meet">
<metadata>
Created by potrace 1.14, written by Peter Selinger 2001-2017
</metadata>
<g transform="translate(0.000000,999.000000) scale(0.100000,-0.100000)"
fill="#000000" stroke="none">
<path d="M4590 9986 c-3 -2 -34 -7 -70 -11 -63 -6 -86 -9 -160 -19 -19 -3 -57
-8 -85 -12 -27 -3 -59 -8 -70 -10 -11 -3 -38 -7 -60 -11 -22 -3 -80 -14 -130
-25 -49 -10 -103 -21 -120 -24 -16 -3 -64 -14 -105 -25 -41 -11 -82 -22 -91
-24 -16 -3 -153 -42 -177 -50 -7 -3 -14 -5 -17 -5 -7 -1 -208 -70 -225 -77 -8
-3 -18 -7 -22 -7 -3 -1 -10 -4 -14 -8 -4 -5 -14 -8 -21 -8 -8 0 -33 -9 -56
-19 -23 -10 -87 -38 -142 -61 -124 -53 -383 -179 -391 -191 -3 -5 -14 -9 -25
-9 -10 0 -19 -3 -19 -8 0 -4 -21 -18 -47 -32 -113 -59 -423 -258 -423 -272 0
-4 -6 -8 -13 -8 -7 0 -22 -8 -33 -17 -10 -10 -38 -31 -62 -47 -24 -16 -46 -35
-50 -42 -4 -7 -11 -13 -15 -13 -8 0 -73 -50 -147 -114 -14 -12 -54 -47 -90
-77 -35 -30 -114 -103 -175 -162 -60 -60 -113 -108 -117 -108 -5 0 -8 -4 -8
-8 0 -5 -22 -31 -50 -58 -27 -27 -50 -55 -50 -61 0 -7 -7 -13 -15 -13 -8 0
-15 -4 -15 -10 0 -5 -13 -23 -30 -38 -16 -16 -30 -34 -30 -41 0 -6 -4 -11 -9
-11 -7 0 -66 -70 -160 -190 -11 -14 -31 -39 -45 -56 -14 -18 -26 -35 -26 -39
0 -4 -8 -15 -18 -24 -24 -22 -141 -196 -203 -301 -18 -30 -36 -56 -41 -58 -4
-2 -8 -7 -8 -11 0 -7 -80 -153 -110 -201 -18 -30 -128 -255 -126 -260 0 -3 -7
-18 -16 -32 -10 -15 -34 -66 -54 -115 -20 -48 -42 -101 -49 -118 -62 -144
-194 -563 -219 -695 -3 -14 -14 -65 -25 -115 -17 -80 -26 -125 -36 -190 -2
-11 -6 -33 -9 -50 -2 -16 -8 -50 -11 -75 -3 -25 -8 -56 -10 -70 -2 -14 -7 -50
-10 -80 -3 -30 -9 -75 -12 -100 -10 -68 -15 -880 -6 -880 4 0 8 -17 9 -38 1
-51 16 -192 30 -277 3 -16 7 -43 9 -60 6 -48 14 -91 46 -245 32 -156 33 -159
48 -208 5 -18 10 -36 11 -40 3 -27 23 -95 81 -277 47 -147 45 -141 105 -290
25 -60 53 -130 63 -155 24 -59 146 -309 189 -385 19 -33 48 -85 64 -115 17
-30 37 -62 44 -71 8 -8 14 -19 14 -23 0 -7 149 -237 159 -246 3 -3 11 -12 16
-21 21 -33 51 -76 99 -139 90 -118 111 -145 116 -150 3 -3 29 -34 59 -70 30
-36 65 -76 76 -90 42 -48 405 -414 405 -408 0 4 17 -10 37 -31 21 -20 83 -72
138 -116 55 -44 102 -83 105 -86 3 -3 52 -40 110 -82 58 -42 111 -81 117 -87
7 -6 13 -8 13 -5 0 4 6 0 14 -7 29 -30 426 -272 426 -261 0 4 8 0 17 -8 18
-15 208 -110 333 -167 146 -66 451 -179 600 -221 25 -8 56 -17 70 -22 25 -8
206 -54 251 -63 13 -3 81 -16 150 -30 114 -23 152 -29 244 -41 17 -2 41 -6 55
-9 14 -2 54 -7 90 -11 36 -4 82 -9 102 -11 139 -15 204 -17 468 -18 162 0 322
3 355 7 91 10 154 16 225 23 36 3 74 8 85 10 11 3 38 7 60 9 22 3 51 8 65 11
14 3 32 6 40 6 8 0 33 4 55 9 22 4 56 10 75 14 50 8 132 26 150 32 8 3 22 7
30 8 8 1 31 6 50 10 19 5 37 9 40 10 55 12 77 18 85 23 6 4 19 8 30 9 27 4
233 68 320 99 77 28 95 35 140 54 17 8 36 14 43 16 8 1 28 9 45 17 43 20 107
46 110 45 1 0 20 8 42 19 22 12 43 21 47 22 6 1 232 116 331 168 15 8 27 18
27 22 0 4 6 8 14 8 16 0 311 180 361 220 6 5 39 29 75 53 36 25 67 47 70 50 3
3 50 40 105 82 55 42 119 94 143 116 23 21 42 37 42 35 0 -5 60 49 191 173
108 103 355 366 379 404 3 4 21 27 42 51 81 98 128 159 128 169 0 5 5 10 10
10 6 0 10 5 10 11 0 7 6 17 14 23 22 17 235 339 230 347 -2 4 3 9 11 13 8 3
15 10 15 16 0 6 12 29 27 53 15 23 26 45 25 50 -1 4 2 7 7 7 5 0 13 10 17 23
3 12 15 34 26 49 11 16 16 28 11 28 -4 0 -3 4 3 8 5 4 20 27 32 52 12 25 28
56 36 70 13 23 37 74 96 205 12 27 23 54 24 61 1 7 8 19 15 28 7 9 10 16 6 16
-4 0 -3 6 2 12 5 7 20 40 32 73 13 33 27 69 32 80 8 19 36 97 43 120 2 6 6 17
9 25 8 23 49 149 51 163 2 7 5 19 8 27 15 45 29 91 33 107 2 10 17 74 33 143
17 69 33 139 36 155 4 17 9 41 12 55 3 14 7 38 9 54 2 15 6 35 9 45 3 9 8 41
11 71 4 30 8 57 10 60 2 3 6 35 9 71 4 36 10 79 14 95 9 36 9 1085 0 1134 -3
19 -9 58 -13 85 -3 28 -9 64 -12 80 -3 17 -7 44 -9 60 -2 17 -6 41 -9 55 -3
14 -8 41 -11 60 -4 28 -42 208 -60 283 -2 9 -6 25 -8 35 -2 9 -9 29 -15 45 -6
15 -9 27 -7 27 2 0 -12 51 -31 113 -19 61 -35 118 -35 125 -1 6 -5 12 -10 12
-5 0 -7 4 -4 8 5 8 -45 159 -65 194 -5 10 -9 27 -9 38 0 11 -4 20 -10 20 -5 0
-10 7 -10 15 0 17 -78 205 -91 219 -5 6 -9 18 -9 28 0 10 -4 18 -10 18 -5 0
-10 9 -10 20 0 11 -5 20 -12 20 -6 0 -9 3 -5 6 7 7 -42 106 -57 116 -6 4 -8 8
-4 8 15 0 -189 360 -203 360 -5 0 -8 3 -7 8 4 10 -44 92 -54 92 -4 0 -8 6 -8
13 0 7 -9 23 -20 35 -11 12 -20 25 -20 30 0 5 -25 41 -55 80 -30 40 -55 74
-55 77 0 3 -7 13 -15 22 -21 26 -106 134 -135 172 -13 18 -33 43 -45 55 -11
12 -47 53 -80 91 -117 134 -153 171 -287 300 -117 113 -137 131 -248 225 -36
30 -67 57 -70 60 -3 4 -23 19 -45 35 -22 17 -42 32 -45 35 -13 13 -131 100
-135 100 -3 0 -18 11 -33 25 -15 14 -32 25 -39 25 -6 0 -13 4 -15 8 -4 12
-125 92 -137 92 -6 0 -11 4 -11 8 0 9 -77 55 -83 50 -2 -2 -11 5 -20 14 -9 9
-52 36 -95 60 -42 24 -85 47 -94 53 -49 29 -188 97 -194 95 -4 -1 -10 2 -13 7
-29 40 -532 236 -806 315 -114 32 -322 84 -370 92 -16 2 -41 7 -55 10 -36 8
-187 34 -240 41 -25 3 -56 8 -70 10 -14 2 -54 7 -90 11 -36 3 -78 9 -95 12
-35 7 -869 15 -875 8z"/>
</g>
</svg>
